# xmcd
#
# Track frame offsets:
#	150
#	22244
#	39742
#	56387
#	73871
#	88333
#	103933
#	120027
#	137707
#	152332
#	169755
#	189013
#
# Disc length: 2734 seconds
#
# Revision: 1
# Processed by: cddbd v1.5.2PL0 Copyright (c) Steve Scherf et al.
# Submitted via: audiograbber 1.83.01
#
DISCID=9b0aac0c
DTITLE=Beccy Cole, Gina Jeffries, Casey Chambers - Capital Karaoke - CKC 119 - 
DTITLE=Aussie Country Gals Vol 1
DYEAR=1900
DGENRE=
TTITLE0=Beccy Cole - Blackwood Hill
TTITLE1=Beccy Cole - This Heart
TTITLE2=Beccy Cole - Rest in Pieces
TTITLE3=Beccy Cole - Big Girls
TTITLE4=Gina Jeffries - Girls Night Out
TTITLE5=Gina Jeffries - Dancing with Elvis
TTITLE6=Gina Jeffries - Two Stars Fell
TTITLE7=Gina Jeffries - Josephine
TTITLE8=Kasey Chambers - Barricades and Brickwalls
TTITLE9=Kasey Chambers - Hollywood
TTITLE10=Kasey Chambers - If I Were You
TTITLE11=Kasey Chambers - Like A River
EXTD=
EXTT0=
EXTT1=
EXTT2=
EXTT3=
EXTT4=
EXTT5=
EXTT6=
EXTT7=
EXTT8=
EXTT9=
EXTT10=
EXTT11=
PLAYORDER=
